<svg xmlns="http://www.w3.org/2000/svg" xmlns:svg="http://www.w3.org/2000/svg" xmlns:rdf="http://www.w3.org/1999/02/22-rdf-syntax-ns#" xmlns:cc="http://creativecommons.org/ns#" xmlns:dc="http://purl.org/dc/elements/1.1/" width="50mm" height="30mm" viewBox="0 0 50 30" version="1.1" id="svg5">
  <title id="title374">Flag of the United Kingdom (3-5)</title>
  <defs id="defs2"/>
  <g id="layer1" style="display:inline">
    <path id="rect5260" style="display:inline;fill:#012169;stroke:none" d="M 0,0 H 50 V 30.000002 H 0 Z"/>
    <path id="path15342" style="fill:#ffffff;fill-opacity:1;stroke:none;stroke-width:1" d="M 4.9977237,-2.9981886 0,0 1.8008272,3.0018248 53.312402,3.001923 58.309682,0.00400026 56.508589,-2.9982677 Z" transform="rotate(30.96)"/>
    <path id="path15319" style="display:inline;fill:#ffffff;fill-opacity:1;stroke:none;stroke-width:1" d="m 41.075547,28.723827 1.800828,-3.001825 -4.997724,-2.998189 -51.510865,-7.9e-5 -1.801093,3.002268 4.99728,2.997923 z" transform="rotate(-30.96)"/>
    <path id="rect10396" style="display:inline;fill:#ffffff;stroke-width:0.999997;stroke:none" d="M 20,0 H 30 V 30.000002 H 20 Z"/>
    <path id="rect11230" style="display:inline;fill:#ffffff;stroke:none" d="M 1.6689301e-6,10.000001 H 50.000002 v 10 H 1.6689301e-6 Z"/>
    <path id="rect10396-3" style="display:inline;fill:#c8102e;stroke-width:0.999996;stroke:none" d="m 22,0 h 6 v 30.000002 h -6 z"/>
    <path id="rect11230-6" style="display:inline;fill:#c8102e;stroke:none" d="M 1.6689301e-6,12.000001 H 50.000002 v 6 H 1.6689301e-6 Z"/>
    <path id="path15792" style="display:inline;fill:#c8102e;fill-opacity:1;stroke:none;stroke-width:1" d="M 50.000049,30.000236 V 27.667562 L 37.217883,19.999813 h -3.887618 z"/>
    <path id="path15766" style="display:inline;fill:#c8102e;fill-opacity:1;stroke:none;stroke-width:1" d="M 0,0 1.199754,1.9998871 16.104952,1.9998009 19.438245,1.2232966e-4 Z" transform="rotate(30.96)"/>
    <path id="path15786" style="display:inline;fill:#c8102e;fill-opacity:1;stroke:none;stroke-width:1" d="M 30.000236 9.9999064 L 33.334916 9.9999064 L 50.000049 0 L 46.116565 0 L 30.000236 9.6686605 L 30.000236 9.9999064 z "/>
    <path id="path15788" style="display:inline;fill:#c8102e;fill-opacity:1;stroke:none;stroke-width:1" d="M 19.999813 19.999813 L 16.666166 19.999813 L 0.0041341146 29.995068 L 0.0041341146 30.000236 L 3.8840007 30.000236 L 19.999813 20.332092 L 19.999813 19.999813 z "/>
  </g>
  <metadata id="metadata372">
    <rdf:RDF>
      <cc:Work rdf:about="">
        <dc:title>Flag of the United Kingdom (3-5)</dc:title>
        <dc:date>2023-05-07</dc:date>
        <dc:creator>
          <cc:Agent>
            <dc:title>Aldo Latino</dc:title>
          </cc:Agent>
        </dc:creator>
        <cc:license rdf:resource="http://creativecommons.org/publicdomain/zero/1.0/"/>
        <dc:description>Flag of the United Kingdom (3:5 version)</dc:description>
      </cc:Work>
      <cc:License rdf:about="http://creativecommons.org/publicdomain/zero/1.0/">
        <cc:permits rdf:resource="http://creativecommons.org/ns#Reproduction"/>
        <cc:permits rdf:resource="http://creativecommons.org/ns#Distribution"/>
        <cc:permits rdf:resource="http://creativecommons.org/ns#DerivativeWorks"/>
      </cc:License>
    </rdf:RDF>
  </metadata>
</svg>