<?xml version="1.0" encoding="UTF-8" standalone="no"?>
<!-- Created with Inkscape (http://www.inkscape.org/) -->

<svg
   version="1.1"
   id="svg2"
   width="1714.6667"
   height="388.04001"
   viewBox="0 0 1714.6667 388.04001"
   sodipodi:docname="Helmus logo.eps"
   xmlns:inkscape="http://www.inkscape.org/namespaces/inkscape"
   xmlns:sodipodi="http://sodipodi.sourceforge.net/DTD/sodipodi-0.dtd"
   xmlns="http://www.w3.org/2000/svg"
   xmlns:svg="http://www.w3.org/2000/svg">
  <defs
     id="defs6" />
  <sodipodi:namedview
     id="namedview4"
     pagecolor="#ffffff"
     bordercolor="#000000"
     borderopacity="0.25"
     inkscape:showpageshadow="2"
     inkscape:pageopacity="0.0"
     inkscape:pagecheckerboard="0"
     inkscape:deskcolor="#d1d1d1" />
  <g
     id="g8"
     inkscape:groupmode="layer"
     inkscape:label="ink_ext_XXXXXX"
     transform="matrix(1.3333333,0,0,-1.3333333,0,388.04)">
    <g
       id="g10"
       transform="scale(0.1)">
      <path
         d="m 4120.33,1311.71 -0.03,-0.02 c -16.79,61 -38.61,118.62 -60.66,164.59 -54,112.56 -167.3,405.35 -300.13,447.89 -33.49,258.85 -294.32,4.35 -351.82,45.24 6.7,8.38 13.4,16.76 20.1,25.14 0,142.63 -147.33,210.52 -241.84,298.47 -49.16,45.74 -109,127.11 -162.55,162.78 -23.03,15.34 -42.47,9.37 -59.32,-8 v 0.01 c 0,0 -0.09,-0.11 -0.14,-0.17 -6.76,-7 -13.09,-15.85 -19.08,-25.89 -30.46,-44.37 -90.65,-144.91 -131.97,-297.23 -3.27,-4.18 -6.56,-8.28 -9.89,-12.24 0,0 -599.71,-361.73 -676.52,-824.64 -3.25,-17.76 -5.53,-36.7 -6.7,-57.06 -1.24,-18.02 -1.74,-36.16 -1.25,-54.44 0,-0.04 0.01,-0.08 0.01,-0.13 0,-19.22 0.38,-40.93 1.25,-62.58 0,0 -17.71,-368.309 327.24,-616 28.35,-26.59 54.53,-37.5 76.44,-49.27 1.77,-1.012 3.46,-1.879 5.21,-2.871 27.6,-15.629 47.7,-35 55.64,-94.609 5.94,-44.532 58.02,-204.93 120.64,-111.309 42.01,62.828 89.78,56.5 104.62,-24.051 0.07,-0.011 0.14,-0.031 0.22,-0.031 1.09,-10.328 14.08,-18.527 30.11,-18.527 10.29,0 19.35,3.386 24.83,8.539 0.05,-0.012 0.09,-0.02 0.14,-0.031 48.78,32.972 42.21,101.691 102.2,39.289 67.7,-70.43 161.37,-73.2 144.07,51.183 13.67,5.59 22.04,15.637 25.13,30.156 49.46,18.782 108.97,10.602 160.24,9.391 125.42,-2.969 249.65,33.793 365.92,80.063 0.08,0.027 0.17,0.046 0.26,0.078 735.28,221.789 457.63,896.28 457.63,896.28"
         style="fill:#235550;fill-opacity:1;fill-rule:evenodd;stroke:none"
         id="path12" />
      <path
         d="m 3325.89,2264.33 c -10.41,0 -20.95,2.5 -30.76,7.78 -31.6,17.02 -43.44,56.42 -26.42,88.03 1.76,3.27 43.79,81.09 97.85,158.42 88.71,126.91 157.74,178.9 224.03,168.49 129.09,-20.24 146.9,-236.71 148.57,-328.84 0.64,-35.89 -27.93,-65.52 -63.82,-66.17 -35.76,-0.57 -65.52,27.92 -66.17,63.82 -1.58,81.5 -19.73,171.81 -38.9,198.95 -39.38,-24.19 -124.14,-139.47 -187.09,-256.3 -11.75,-21.8 -34.15,-34.18 -57.29,-34.18 v 0"
         style="fill:#2ea744;fill-opacity:1;fill-rule:nonzero;stroke:none"
         id="path14" />
      <path
         d="m 3867.28,1966.89 c -18.44,0 -36.74,7.8 -49.6,22.95 -23.23,27.37 -19.87,68.39 7.5,91.62 24.02,20.49 48.31,47.14 62.86,67.74 -46.78,-4.48 -130.26,-25.81 -204.33,-53.63 -33.58,-12.63 -71.08,4.38 -83.71,37.97 -12.63,33.6 4.35,71.07 37.94,83.71 2.73,1.02 67.62,25.34 139.16,43.23 124.33,31.07 193.32,24.92 230.73,-20.56 78.16,-95.08 -55.65,-221.19 -98.53,-257.58 -12.22,-10.38 -27.16,-15.45 -42.02,-15.45 v 0"
         style="fill:#2ea744;fill-opacity:1;fill-rule:nonzero;stroke:none"
         id="path16" />
      <path
         d="m 1176.15,1515.22 h -0.84 l -153.18,-460.36 h 307.2 z m 497.2,-794.341 c 6.69,-20.098 10.88,-36 12.55,-47.719 1.68,-11.719 -0.55,-20.5 -6.69,-26.359 -6.15,-5.871 -17.03,-9.492 -32.64,-10.891 -15.63,-1.39 -37.12,-2.09 -64.46,-2.09 -28.46,0 -50.64,0.418 -66.54,1.25 -15.91,0.84 -28.04,2.52 -36.41,5.02 -8.37,2.519 -14.23,6 -17.58,10.469 -3.35,4.461 -6.15,10.32 -8.37,17.582 L 1380.39,885.77 H 973.59 L 904.949,674 c -2.238,-7.828 -5.168,-14.371 -8.793,-19.668 -3.636,-5.312 -9.492,-9.5 -17.57,-12.562 -8.102,-3.059 -19.543,-5.161 -34.324,-6.282 -14.793,-1.097 -34.188,-1.668 -58.172,-1.668 -25.676,0 -45.762,0.828 -60.27,2.512 -14.515,1.668 -24.558,5.707 -30.136,12.137 -5.582,6.402 -7.532,15.492 -5.86,27.203 1.676,11.707 5.86,27.328 12.559,46.879 l 333.977,960.919 c 3.35,9.48 7.25,17.16 11.72,23.02 4.46,5.86 11.57,10.32 21.35,13.39 9.75,3.06 23.29,5.02 40.59,5.86 17.29,0.83 40.18,1.26 68.65,1.26 32.91,0 59.13,-0.43 78.67,-1.26 19.53,-0.84 34.74,-2.8 45.62,-5.86 10.88,-3.07 18.69,-7.68 23.43,-13.81 4.75,-6.15 8.8,-14.52 12.15,-25.11 l 334.81,-960.081"
         style="fill:#2ea744;fill-opacity:1;fill-rule:nonzero;stroke:none"
         id="path18" />
      <path
         d="m 2072.63,759.379 c 0,-51.899 -9.09,-86.777 -27.21,-104.637 -18.14,-17.851 -50.64,-26.781 -97.51,-26.781 -46.88,0 -79.25,8.789 -97.1,26.371 -17.87,17.566 -26.78,50.906 -26.78,100.02 0,52.449 9.06,87.609 27.2,105.468 18.13,17.86 50.91,26.782 98.35,26.782 46.31,0 78.4,-8.793 96.26,-26.364 17.86,-17.566 26.79,-51.199 26.79,-100.859"
         style="fill:#2ea744;fill-opacity:1;fill-rule:nonzero;stroke:none"
         id="path20" />
      <path
         d="m 3588.24,668.98 c 0,-5.601 -1.82,-10.621 -5.43,-15.07 -3.64,-4.48 -9.63,-8.101 -18,-10.879 -8.37,-2.812 -19.54,-5.031 -33.49,-6.699 -13.95,-1.684 -31.52,-2.512 -52.73,-2.512 -21.76,0 -39.76,0.828 -53.99,2.512 -14.22,1.668 -25.39,3.887 -33.47,6.699 -8.11,2.778 -13.97,6.399 -17.58,10.879 -3.64,4.449 -5.44,9.469 -5.44,15.07 v 437.76 H 2962.97 V 668.98 c 0,-5.601 -1.67,-10.621 -5.02,-15.07 -3.35,-4.48 -9.2,-8.101 -17.57,-10.879 -8.37,-2.812 -19.55,-5.031 -33.49,-6.699 -13.96,-1.684 -31.81,-2.512 -53.57,-2.512 -21.22,0 -38.92,0.828 -53.15,2.512 -14.24,1.668 -25.54,3.887 -33.9,6.699 -8.37,2.778 -14.37,6.399 -18,10.879 -3.63,4.449 -5.44,9.469 -5.44,15.07 v 1022.86 c 0,5.57 1.81,10.59 5.44,15.07 3.63,4.46 9.63,8.08 18,10.88 8.36,2.78 19.66,5.02 33.9,6.69 14.23,1.68 31.93,2.52 53.15,2.52 21.76,0 39.61,-0.84 53.57,-2.52 13.94,-1.67 25.12,-3.91 33.49,-6.69 8.37,-2.8 14.22,-6.42 17.57,-10.88 3.35,-4.48 5.02,-9.5 5.02,-15.07 v -397.59 h 405.14 v 397.59 c 0,5.57 1.8,10.59 5.44,15.07 3.61,4.46 9.47,8.08 17.58,10.88 8.08,2.78 19.25,5.02 33.47,6.69 14.23,1.68 32.23,2.52 53.99,2.52 21.21,0 38.78,-0.84 52.73,-2.52 13.95,-1.67 25.12,-3.91 33.49,-6.69 8.37,-2.8 14.36,-6.42 18,-10.88 3.61,-4.48 5.43,-9.5 5.43,-15.07 V 668.98"
         style="fill:#ffffff;fill-opacity:1;fill-rule:nonzero;stroke:none"
         id="path22" />
      <path
         d="m 4936.3,725.051 c 0,-16.192 -0.7,-29.711 -2.1,-40.59 -1.39,-10.879 -3.48,-19.672 -6.28,-26.359 -2.79,-6.711 -6.26,-11.59 -10.45,-14.661 -4.19,-3.07 -8.8,-4.601 -13.81,-4.601 h -544.08 c -18.42,0 -33.9,5.441 -46.46,16.32 -12.55,10.879 -18.84,28.59 -18.84,53.149 V 1652.5 c 0,24.55 6.29,42.27 18.84,53.15 12.56,10.89 28.04,16.32 46.46,16.32 h 540.73 c 5.02,0 9.47,-1.4 13.39,-4.18 3.89,-2.8 7.24,-7.68 10.05,-14.65 2.77,-6.99 4.88,-15.91 6.27,-26.79 1.38,-10.88 2.09,-24.69 2.09,-41.43 0,-15.63 -0.71,-28.87 -2.09,-39.76 -1.39,-10.88 -3.5,-19.67 -6.27,-26.36 -2.81,-6.7 -6.16,-11.59 -10.05,-14.66 -3.92,-3.07 -8.37,-4.6 -13.39,-4.6 h -386.72 v -264.5 h 327.28 c 5.03,0 9.63,-1.55 13.81,-4.61 4.19,-3.07 7.68,-7.82 10.47,-14.22 2.78,-6.43 4.88,-15.07 6.27,-25.95 1.4,-10.88 2.1,-24.15 2.1,-39.77 0,-16.19 -0.7,-29.58 -2.1,-40.17 -1.39,-10.61 -3.49,-19.13 -6.27,-25.53 -2.79,-6.43 -6.28,-11.03 -10.47,-13.82 -4.18,-2.79 -8.78,-4.18 -13.81,-4.18 H 4513.59 V 811.27 h 390.07 c 5.01,0 9.62,-1.551 13.81,-4.598 4.19,-3.07 7.66,-7.961 10.45,-14.652 2.8,-6.7 4.89,-15.481 6.28,-26.372 1.4,-10.878 2.1,-24.418 2.1,-40.597"
         style="fill:#2ea744;fill-opacity:1;fill-rule:nonzero;stroke:none"
         id="path24" />
      <path
         d="m 5725.63,730.91 c 0,-16.738 -0.7,-30.828 -2.1,-42.269 -1.39,-11.442 -3.49,-20.93 -6.27,-28.461 -2.79,-7.52 -6.28,-12.969 -10.47,-16.321 -4.18,-3.347 -9.07,-5.019 -14.64,-5.019 h -496.36 c -18.43,0 -33.91,5.441 -46.46,16.32 -12.56,10.879 -18.85,28.59 -18.85,53.149 v 983.531 c 0,5.57 1.82,10.59 5.45,15.07 3.64,4.46 9.63,8.08 18,10.88 8.37,2.78 19.66,5.02 33.9,6.69 14.24,1.68 31.93,2.52 53.15,2.52 21.76,0 39.62,-0.84 53.57,-2.52 13.94,-1.67 25.11,-3.91 33.49,-6.69 8.36,-2.8 14.36,-6.42 17.99,-10.88 3.61,-4.48 5.44,-9.5 5.44,-15.07 V 820.469 h 340.68 c 5.57,0 10.46,-1.539 14.64,-4.598 4.19,-3.082 7.68,-8.082 10.47,-15.062 2.78,-6.989 4.88,-16.188 6.27,-27.629 1.4,-11.442 2.1,-25.52 2.1,-42.27"
         style="fill:#2ea744;fill-opacity:1;fill-rule:nonzero;stroke:none"
         id="path26" />
      <path
         d="m 7117.63,668.98 c 0,-5.601 -1.54,-10.621 -4.61,-15.07 -3.06,-4.48 -8.65,-8.101 -16.74,-10.879 -8.08,-2.812 -18.82,-5.031 -32.22,-6.699 -13.39,-1.684 -30.42,-2.512 -51.06,-2.512 -20.09,0 -36.83,0.828 -50.21,2.512 -13.4,1.668 -24.01,3.887 -31.82,6.699 -7.82,2.778 -13.4,6.399 -16.74,10.879 -3.35,4.449 -5.02,9.469 -5.02,15.07 v 881.4 h -1.68 L 6593.65,669.809 c -2.25,-7.258 -5.86,-13.258 -10.88,-18 -5.03,-4.75 -11.88,-8.52 -20.51,-11.297 -8.66,-2.782 -19.68,-4.602 -33.07,-5.442 -13.39,-0.832 -29.59,-1.25 -48.54,-1.25 -18.98,0 -35.17,0.7 -48.57,2.09 -13.37,1.399 -24.41,3.621 -33.05,6.699 -8.65,3.051 -15.48,6.821 -20.51,11.301 -5.02,4.449 -8.37,9.75 -10.05,15.899 l -303.01,880.571 h -1.66 v -881.4 c 0,-5.601 -1.54,-10.621 -4.61,-15.07 -3.07,-4.48 -8.78,-8.101 -17.15,-10.879 -8.37,-2.812 -19.13,-5.031 -32.23,-6.699 -13.12,-1.684 -30.01,-2.512 -50.64,-2.512 -20.09,0 -36.83,0.828 -50.23,2.512 -13.39,1.668 -24.14,3.887 -32.23,6.699 -8.09,2.778 -13.67,6.399 -16.73,10.879 -3.08,4.449 -4.61,9.469 -4.61,15.07 v 965.1 c 0,28.46 7.54,50.23 22.6,65.3 15.06,15.07 35.15,22.59 60.27,22.59 h 143.96 c 25.67,0 47.72,-2.09 66.13,-6.27 18.42,-4.18 34.32,-11.18 47.72,-20.93 13.39,-9.77 24.55,-22.6 33.48,-38.5 8.92,-15.91 16.73,-35.58 23.43,-59.02 l 234.38,-645.359 h 3.34 l 242.75,643.689 c 7.25,23.44 15.2,43.24 23.86,59.43 8.64,16.18 18.68,29.3 30.14,39.34 11.42,10.05 24.96,17.17 40.58,21.35 15.62,4.18 33.76,6.27 54.42,6.27 h 148.15 c 15.06,0 28.05,-1.96 38.93,-5.85 10.88,-3.92 19.8,-9.63 26.77,-17.16 6.98,-7.54 12.27,-16.74 15.91,-27.63 3.63,-10.88 5.44,-23.3 5.44,-37.25 v -965.1"
         style="fill:#2ea744;fill-opacity:1;fill-rule:nonzero;stroke:none"
         id="path28" />
      <path
         d="m 8237.6,1042.29 c 0,-66.411 -9.77,-125.829 -29.28,-178.278 -19.56,-52.473 -48.29,-96.832 -86.23,-133.102 -37.95,-36.281 -84.83,-63.898 -140.62,-82.859 -55.81,-18.969 -119.98,-28.469 -192.51,-28.469 -68.1,0 -129.21,8.52 -183.32,25.527 -54.14,17.02 -99.9,42.821 -137.28,77.442 -37.39,34.59 -65.99,77.699 -85.79,129.32 -19.82,51.598 -29.72,112.02 -29.72,181.219 v 658.75 c 0,5.57 1.67,10.59 5.02,15.07 3.36,4.46 9.34,8.08 18,10.88 8.65,2.78 19.95,5.02 33.9,6.69 13.95,1.68 31.81,2.52 53.56,2.52 21.22,0 38.79,-0.84 52.74,-2.52 13.94,-1.67 25.12,-3.91 33.48,-6.69 8.37,-2.8 14.36,-6.42 18,-10.88 3.63,-4.48 5.44,-9.5 5.44,-15.07 v -639.5 c 0,-42.98 5.3,-80.231 15.91,-111.75 10.59,-31.531 25.8,-57.621 45.61,-78.262 19.8,-20.648 43.53,-36.137 71.15,-46.457 27.63,-10.332 58.46,-15.48 92.5,-15.48 34.59,0 65.56,5.3 92.91,15.91 27.33,10.59 50.5,26.07 69.47,46.449 18.97,20.371 33.62,45.48 43.95,75.34 10.32,29.832 15.49,63.74 15.49,101.7 v 652.05 c 0,5.57 1.68,10.59 5.02,15.07 3.34,4.46 9.2,8.08 17.57,10.88 8.37,2.78 19.67,5.02 33.91,6.69 14.23,1.68 31.93,2.52 53.14,2.52 21.21,0 38.65,-0.84 52.33,-2.52 13.66,-1.67 24.69,-3.91 33.05,-6.69 8.37,-2.8 14.23,-6.42 17.57,-10.88 3.36,-4.48 5.03,-9.5 5.03,-15.07 v -649.55"
         style="fill:#2ea744;fill-opacity:1;fill-rule:nonzero;stroke:none"
         id="path30" />
      <path
         d="m 9114.82,963.609 c 0,-56.91 -10.61,-106.859 -31.8,-149.828 -21.22,-42.98 -49.96,-78.82 -86.23,-107.562 -36.27,-28.758 -78.67,-50.36 -127.22,-64.879 -48.56,-14.488 -100.45,-21.758 -155.69,-21.758 -37.4,0 -72.13,3.078 -104.22,9.207 -32.1,6.152 -60.41,13.531 -84.96,22.18 -24.55,8.66 -45.06,17.711 -61.52,27.211 -16.47,9.492 -28.33,17.851 -35.57,25.109 -7.26,7.25 -12.42,17.711 -15.49,31.391 -3.07,13.66 -4.61,33.34 -4.61,59.011 0,17.301 0.55,31.809 1.68,43.528 1.12,11.722 2.93,21.203 5.43,28.461 2.52,7.242 5.86,12.41 10.05,15.48 4.19,3.07 9.08,4.61 14.66,4.61 7.8,0 18.83,-4.61 33.06,-13.809 14.23,-9.211 32.5,-19.402 54.83,-30.563 22.31,-11.168 48.97,-21.339 79.94,-30.539 30.97,-9.211 66.82,-13.82 107.55,-13.82 26.79,0 50.77,3.211 71.99,9.633 21.2,6.398 39.19,15.488 53.99,27.199 14.77,11.719 26.08,26.219 33.89,43.52 7.82,17.3 11.73,36.55 11.73,57.757 0,24.551 -6.71,45.622 -20.08,63.204 -13.4,17.568 -30.85,33.188 -52.33,46.878 -21.48,13.66 -45.91,26.49 -73.24,38.5 -27.34,11.99 -55.53,24.69 -84.54,38.08 -29.03,13.4 -57.21,28.59 -84.54,45.62 -27.35,17.02 -51.77,37.38 -73.25,61.11 -21.48,23.71 -38.91,51.75 -52.31,84.12 -13.39,32.35 -20.09,71.15 -20.09,116.35 0,51.89 9.63,97.52 28.88,136.86 19.26,39.34 45.19,71.98 77.85,97.93 32.65,25.95 71.14,45.33 115.5,58.17 44.37,12.84 91.38,19.26 141.05,19.26 25.66,0 51.33,-1.96 77.02,-5.86 25.65,-3.91 49.65,-9.21 71.97,-15.91 22.32,-6.69 42.13,-14.23 59.44,-22.6 17.29,-8.37 28.73,-15.35 34.31,-20.93 5.57,-5.58 9.34,-10.32 11.31,-14.22 1.94,-3.91 3.61,-9.08 5.02,-15.49 1.38,-6.42 2.36,-14.52 2.93,-24.27 0.54,-9.78 0.84,-21.91 0.84,-36.41 0,-16.2 -0.42,-29.86 -1.25,-41.02 -0.85,-11.17 -2.25,-20.38 -4.2,-27.62 -1.96,-7.27 -4.74,-12.56 -8.37,-15.91 -3.63,-3.34 -8.52,-5.02 -14.65,-5.02 -6.14,0 -15.91,3.9 -29.29,11.72 -13.4,7.81 -29.86,16.33 -49.38,25.52 -19.54,9.22 -42.14,17.59 -67.81,25.12 -25.68,7.54 -53.86,11.3 -84.54,11.3 -24,0 -44.93,-2.93 -62.78,-8.79 -17.86,-5.86 -32.79,-13.95 -44.78,-24.27 -12.02,-10.33 -20.93,-22.74 -26.79,-37.25 -5.86,-14.52 -8.78,-29.86 -8.78,-46.04 0,-24 6.55,-44.78 19.67,-62.36 13.1,-17.57 30.67,-33.2 52.72,-46.87 22.04,-13.68 47,-26.51 74.93,-38.51 27.88,-12 56.35,-24.69 85.37,-38.08 29.01,-13.4 57.47,-28.61 85.38,-45.62 27.91,-17.03 52.74,-37.39 74.5,-61.1 21.76,-23.74 39.33,-51.62 52.73,-83.71 13.39,-32.1 20.09,-69.89 20.09,-113.421"
         style="fill:#2ea744;fill-opacity:1;fill-rule:nonzero;stroke:none"
         id="path32" />
      <path
         d="m 10226.4,956.078 c 0,25.113 -4.2,47.572 -12.5,67.382 -8.4,19.8 -20.7,36.41 -36.9,49.8 -16.2,13.4 -36.8,23.71 -61.9,30.98 -25.1,7.25 -57.8,10.88 -97.9,10.88 H 9886.58 V 807.09 h 159.02 c 30.7,0 56.5,3.199 77.4,9.629 21,6.402 39.1,15.902 54.5,28.453 15.3,12.547 27.3,28.18 35.9,46.867 8.7,18.691 13,40.043 13,64.039 z m -56.1,463.722 c 0,21.76 -3.3,41.29 -10,58.6 -6.7,17.29 -16.7,31.66 -30.1,43.11 -13.4,11.42 -30.3,20.21 -50.7,26.36 -20.4,6.13 -47.6,9.2 -81.59,9.2 h -111.33 v -281.25 h 123.02 c 31.8,0 57.2,3.77 76.2,11.31 19,7.53 34.7,17.86 47.3,30.97 12.5,13.1 21.9,28.46 28,46.03 6.2,17.59 9.2,36.13 9.2,55.67 z m 284.6,-456.191 c 0,-38.5 -5.3,-73.379 -15.9,-104.621 -10.6,-31.258 -25.2,-58.886 -43.9,-82.867 -18.7,-24.012 -41,-44.652 -67,-61.949 -25.9,-17.293 -54.5,-31.531 -85.8,-42.692 -31.2,-11.171 -64.6,-19.39 -100,-24.679 -35.4,-5.313 -74.9,-7.961 -118.4,-7.961 h -287.99 c -18.41,0 -33.9,5.441 -46.45,16.32 -12.55,10.879 -18.84,28.59 -18.84,53.149 V 1652.5 c 0,24.55 6.29,42.27 18.84,53.15 12.55,10.89 28.04,16.32 46.45,16.32 H 10008 c 66.4,0 122.6,-5.58 168.6,-16.74 46.1,-11.17 84.8,-28.04 116.4,-50.64 31.5,-22.6 55.6,-51.2 72.4,-85.79 16.7,-34.61 25.1,-75.34 25.1,-122.22 0,-26.23 -3.4,-50.92 -10.1,-74.07 -6.7,-23.16 -16.4,-44.24 -29.3,-63.2 -12.8,-18.98 -28.6,-35.71 -47.3,-50.23 -18.6,-14.51 -40,-26.22 -64,-35.14 30.7,-5.59 59,-15.36 85,-29.31 25.9,-13.95 48.5,-31.94 67.8,-53.98 19.2,-22.05 34.4,-47.86 45.6,-77.44 11.2,-29.58 16.7,-62.77 16.7,-99.601"
         style="fill:#2ea744;fill-opacity:1;fill-rule:nonzero;stroke:none"
         id="path34" />
      <path
         d="m 10866.8,759.379 c 0,-51.899 -9.1,-86.777 -27.3,-104.637 -18.1,-17.851 -50.6,-26.781 -97.5,-26.781 -46.8,0 -79.2,8.789 -97.1,26.371 -17.8,17.566 -26.8,50.906 -26.8,100.02 0,52.449 9.1,87.609 27.3,105.468 18.1,17.86 50.9,26.782 98.3,26.782 46.3,0 78.4,-8.793 96.3,-26.364 17.8,-17.566 26.8,-51.199 26.8,-100.859"
         style="fill:#2ea744;fill-opacity:1;fill-rule:nonzero;stroke:none"
         id="path36" />
      <path
         d="m 11515.5,677.34 c -2.8,-9.488 -6.5,-17.16 -10.9,-23.008 -4.5,-5.863 -11.7,-10.344 -21.8,-13.402 -10,-3.059 -23.7,-5.02 -41,-5.86 -17.3,-0.832 -39.9,-1.25 -67.8,-1.25 -22.3,0 -41.4,0.141 -57.3,0.418 -15.9,0.282 -29.5,0.981 -40.6,2.094 -11.2,1.129 -20.3,2.789 -27.2,5.008 -7,2.242 -12.9,5.031 -17.6,8.379 -4.8,3.351 -8.4,7.39 -10.9,12.14 -2.5,4.731 -4.9,10.743 -7.1,18 L 10891,1639.94 c -6.7,20.09 -10.7,35.99 -12.1,47.72 -1.4,11.72 1.4,20.5 8.4,26.37 6.9,5.85 18.8,9.47 35.5,10.87 16.8,1.39 40.2,2.1 70.3,2.1 25.7,0 45.8,-0.57 60.3,-1.68 14.5,-1.12 25.7,-3.07 33.5,-5.86 7.8,-2.8 13.2,-6.98 16.3,-12.55 3.1,-5.59 6,-12.56 8.8,-20.93 l 263.7,-835.371 h 0.8 l 258.7,831.181 c 2.2,9.49 5,17.17 8.3,23.03 3.4,5.85 9.1,10.46 17.2,13.8 8.1,3.35 19.6,5.58 34.7,6.7 15.1,1.11 35.7,1.68 62,1.68 25.6,0 45.6,-0.84 59.8,-2.52 14.2,-1.67 24,-5.72 29.3,-12.13 5.3,-6.42 7,-15.49 5,-27.2 -1.9,-11.73 -6.2,-27.35 -13,-46.88 l -323,-960.93"
         style="fill:#2ea744;fill-opacity:1;fill-rule:nonzero;stroke:none"
         id="path38" />
      <path
         d="m 12062.1,759.379 c 0,-51.899 -9.1,-86.777 -27.3,-104.637 -18.1,-17.851 -50.6,-26.781 -97.5,-26.781 -46.8,0 -79.2,8.789 -97.1,26.371 -17.8,17.566 -26.7,50.906 -26.7,100.02 0,52.449 9,87.609 27.1,105.468 18.2,17.86 51,26.782 98.4,26.782 46.3,0 78.4,-8.793 96.3,-26.364 17.8,-17.566 26.8,-51.199 26.8,-100.859"
         style="fill:#2ea744;fill-opacity:1;fill-rule:nonzero;stroke:none"
         id="path40" />
      <path
         d="m 5508.82,2234.27 c 0,-5.66 -0.25,-10.39 -0.73,-14.19 -0.49,-3.8 -1.22,-6.87 -2.2,-9.21 -0.98,-2.34 -2.19,-4.05 -3.65,-5.12 -1.47,-1.07 -3.07,-1.61 -4.83,-1.61 h -190.1 c -6.43,0 -11.84,1.9 -16.23,5.71 -4.39,3.8 -6.58,9.99 -6.58,18.56 v 329.9 c 0,8.57 2.19,14.76 6.58,18.57 4.39,3.8 9.8,5.7 16.23,5.7 h 188.93 c 1.75,0 3.32,-0.49 4.68,-1.47 1.36,-0.97 2.53,-2.68 3.51,-5.11 0.97,-2.44 1.7,-5.56 2.19,-9.36 0.49,-3.8 0.73,-8.62 0.73,-14.48 0,-5.45 -0.24,-10.09 -0.73,-13.89 -0.49,-3.81 -1.22,-6.87 -2.19,-9.21 -0.98,-2.34 -2.15,-4.05 -3.51,-5.12 -1.36,-1.06 -2.93,-1.6 -4.68,-1.6 h -135.11 v -92.42 h 114.35 c 1.75,0 3.36,-0.54 4.82,-1.61 1.46,-1.08 2.68,-2.73 3.66,-4.97 0.97,-2.24 1.7,-5.27 2.19,-9.07 0.49,-3.8 0.73,-8.43 0.73,-13.89 0,-5.66 -0.24,-10.33 -0.73,-14.04 -0.49,-3.7 -1.22,-6.68 -2.19,-8.91 -0.98,-2.25 -2.2,-3.86 -3.66,-4.84 -1.46,-0.96 -3.07,-1.45 -4.82,-1.45 h -114.35 v -106.75 h 136.28 c 1.76,0 3.36,-0.54 4.83,-1.61 1.46,-1.07 2.67,-2.78 3.65,-5.12 0.98,-2.34 1.71,-5.41 2.2,-9.21 0.48,-3.81 0.73,-8.53 0.73,-14.18"
         style="fill:#2ea744;fill-opacity:1;fill-rule:nonzero;stroke:none"
         id="path42" />
      <path
         d="m 5755.94,2287.79 c 0,-14.83 -2.78,-27.89 -8.33,-39.19 -5.56,-11.31 -13.41,-20.77 -23.55,-28.37 -10.13,-7.6 -22.13,-13.31 -35.97,-17.11 -13.85,-3.8 -28.86,-5.71 -45.04,-5.71 -9.75,0 -19.06,0.73 -27.93,2.2 -8.87,1.46 -16.81,3.31 -23.83,5.56 -7.02,2.23 -12.87,4.53 -17.55,6.87 -4.68,2.34 -8.09,4.53 -10.23,6.58 -2.15,2.05 -3.81,5.26 -4.97,9.65 -1.18,4.39 -1.76,10.86 -1.76,19.45 0,5.65 0.19,10.18 0.58,13.6 0.39,3.41 0.97,6.14 1.76,8.18 0.78,2.05 1.75,3.42 2.92,4.1 1.17,0.68 2.63,1.03 4.39,1.03 2.14,0 5.31,-1.22 9.5,-3.66 4.2,-2.44 9.41,-5.12 15.65,-8.05 6.24,-2.92 13.5,-5.65 21.79,-8.18 8.29,-2.54 17.69,-3.81 28.22,-3.81 6.63,0 12.53,0.7 17.69,2.05 5.17,1.36 9.66,3.32 13.46,5.85 3.8,2.53 6.67,5.75 8.63,9.65 1.94,3.9 2.92,8.38 2.92,13.46 0,5.85 -1.8,10.86 -5.41,15.06 -3.61,4.19 -8.39,7.84 -14.33,10.96 -5.95,3.12 -12.67,6.05 -20.18,8.78 -7.51,2.72 -15.21,5.75 -23.11,9.06 -7.89,3.33 -15.6,7.12 -23.1,11.41 -7.51,4.29 -14.23,9.55 -20.18,15.79 -5.95,6.24 -10.72,13.75 -14.33,22.52 -3.61,8.77 -5.41,19.3 -5.41,31.59 0,12.47 2.44,23.93 7.31,34.36 4.87,10.42 11.89,19.35 21.06,26.76 9.16,7.41 20.32,13.16 33.49,17.25 13.16,4.1 27.93,6.15 44.3,6.15 8.19,0 16.13,-0.59 23.84,-1.76 7.7,-1.17 14.67,-2.63 20.91,-4.39 6.24,-1.75 11.5,-3.65 15.79,-5.7 4.29,-2.05 7.36,-3.8 9.22,-5.26 1.85,-1.47 3.16,-2.93 3.94,-4.39 0.78,-1.46 1.36,-3.21 1.76,-5.27 0.38,-2.04 0.73,-4.57 1.02,-7.6 0.29,-3.03 0.44,-6.78 0.44,-11.26 0,-5.26 -0.15,-9.55 -0.44,-12.86 -0.29,-3.32 -0.78,-5.96 -1.46,-7.9 -0.69,-1.95 -1.61,-3.28 -2.78,-3.95 -1.17,-0.68 -2.54,-1.02 -4.1,-1.02 -1.75,0 -4.48,1.02 -8.18,3.07 -3.71,2.04 -8.34,4.24 -13.9,6.58 -5.55,2.34 -11.99,4.53 -19.3,6.58 -7.31,2.05 -15.64,3.07 -25,3.07 -6.63,0 -12.39,-0.69 -17.26,-2.05 -4.87,-1.37 -8.87,-3.31 -11.99,-5.85 -3.12,-2.54 -5.46,-5.51 -7.02,-8.92 -1.56,-3.41 -2.34,-7.06 -2.34,-10.96 0,-6.05 1.85,-11.12 5.56,-15.21 3.7,-4.1 8.57,-7.7 14.62,-10.82 6.04,-3.12 12.91,-6.05 20.62,-8.78 7.7,-2.73 15.5,-5.7 23.4,-8.92 7.89,-3.21 15.69,-6.97 23.39,-11.26 7.7,-4.29 14.58,-9.55 20.62,-15.79 6.04,-6.24 10.92,-13.7 14.63,-22.37 3.7,-8.68 5.55,-18.96 5.55,-30.85"
         style="fill:#2ea744;fill-opacity:1;fill-rule:nonzero;stroke:none"
         id="path44" />
      <path
         d="m 5958.9,2239.82 c 0,-8.58 -0.54,-15.16 -1.61,-19.74 -1.07,-4.58 -2.48,-7.8 -4.24,-9.65 -1.75,-1.85 -4.34,-3.51 -7.75,-4.97 -3.41,-1.46 -7.41,-2.73 -11.99,-3.8 -4.58,-1.07 -9.55,-1.9 -14.91,-2.49 -5.37,-0.58 -10.78,-0.88 -16.23,-0.88 -14.63,0 -27.3,1.86 -38.02,5.56 -10.73,3.7 -19.6,9.4 -26.62,17.11 -7.02,7.7 -12.18,17.4 -15.5,29.09 -3.31,11.7 -4.97,25.55 -4.97,41.54 v 133.65 h -31.29 c -3.7,0 -6.54,2.29 -8.48,6.87 -1.95,4.58 -2.92,12.23 -2.92,22.96 0,5.64 0.23,10.43 0.72,14.33 0.49,3.9 1.22,6.97 2.2,9.21 0.97,2.24 2.19,3.85 3.65,4.83 1.47,0.97 3.17,1.46 5.12,1.46 h 31 v 58.2 c 0,1.95 0.54,3.7 1.61,5.26 1.07,1.56 3.02,2.88 5.85,3.95 2.82,1.07 6.63,1.85 11.4,2.34 4.78,0.48 10.68,0.73 17.7,0.73 7.21,0 13.21,-0.25 17.99,-0.73 4.77,-0.49 8.52,-1.27 11.26,-2.34 2.72,-1.07 4.67,-2.39 5.84,-3.95 1.17,-1.56 1.76,-3.31 1.76,-5.26 v -58.2 h 56.73 c 1.95,0 3.66,-0.49 5.12,-1.46 1.46,-0.98 2.68,-2.59 3.66,-4.83 0.97,-2.24 1.7,-5.31 2.19,-9.21 0.49,-3.9 0.73,-8.69 0.73,-14.33 0,-10.73 -0.98,-18.38 -2.92,-22.96 -1.95,-4.58 -4.78,-6.87 -8.48,-6.87 h -57.03 V 2302.7 c 0,-14.24 2.24,-24.91 6.72,-32.02 4.48,-7.12 12.48,-10.68 23.99,-10.68 3.89,0 7.4,0.34 10.52,1.03 3.12,0.68 5.9,1.46 8.34,2.34 2.44,0.87 4.48,1.65 6.14,2.34 1.66,0.67 3.17,1.02 4.53,1.02 1.17,0 2.29,-0.35 3.37,-1.02 1.07,-0.69 1.9,-2.05 2.48,-4.1 0.59,-2.05 1.12,-4.82 1.61,-8.34 0.49,-3.5 0.73,-7.99 0.73,-13.45"
         style="fill:#2ea744;fill-opacity:1;fill-rule:nonzero;stroke:none"
         id="path46" />
      <path
         d="m 6098.7,2246.26 c 0,-18.14 -3.17,-30.33 -9.51,-36.56 -6.33,-6.24 -17.69,-9.36 -34.07,-9.36 -16.37,0 -27.68,3.07 -33.92,9.21 -6.24,6.15 -9.36,17.79 -9.36,34.95 0,18.32 3.16,30.61 9.5,36.85 6.34,6.24 17.8,9.36 34.37,9.36 16.18,0 27.39,-3.07 33.63,-9.21 6.24,-6.15 9.36,-17.89 9.36,-35.24"
         style="fill:#2ea744;fill-opacity:1;fill-rule:nonzero;stroke:none"
         id="path48" />
      <path
         d="m 6546.74,2233.38 c 0,-5.46 -0.29,-10.08 -0.88,-13.88 -0.58,-3.8 -1.41,-6.83 -2.48,-9.07 -1.08,-2.24 -2.3,-3.85 -3.66,-4.83 -1.37,-0.97 -2.92,-1.46 -4.68,-1.46 h -208.81 c -1.56,0 -3.03,0.49 -4.38,1.46 -1.37,0.98 -2.59,2.59 -3.66,4.83 -1.08,2.24 -1.9,5.27 -2.49,9.07 -0.58,3.8 -0.88,8.42 -0.88,13.88 0,5.66 0.25,10.39 0.74,14.19 0.48,3.81 1.26,6.88 2.34,9.22 1.06,2.34 2.29,4.04 3.65,5.11 1.37,1.07 2.93,1.61 4.68,1.61 h 70.48 v 246.25 l -60.83,-33.63 c -4.48,-2.15 -8.14,-3.47 -10.97,-3.95 -2.83,-0.49 -5.07,0.09 -6.72,1.75 -1.66,1.66 -2.78,4.53 -3.37,8.63 -0.58,4.09 -0.87,9.84 -0.87,17.26 0,4.68 0.09,8.52 0.29,11.55 0.19,3.02 0.68,5.59 1.46,7.76 0.78,2.13 1.85,3.89 3.22,5.25 1.36,1.37 3.21,2.82 5.56,4.39 l 81.3,52.64 c 0.97,0.77 2.19,1.41 3.65,1.9 1.47,0.49 3.37,0.88 5.71,1.17 2.34,0.29 5.41,0.48 9.21,0.59 3.8,0.09 8.72,0.14 14.77,0.14 7.4,0 13.4,-0.14 17.98,-0.44 4.58,-0.29 8.05,-0.78 10.39,-1.46 2.33,-0.68 3.9,-1.61 4.68,-2.77 0.77,-1.18 1.16,-2.64 1.16,-4.4 v -312.63 h 61.71 c 1.76,0 3.37,-0.54 4.83,-1.61 1.46,-1.07 2.73,-2.77 3.8,-5.11 1.07,-2.34 1.85,-5.41 2.34,-9.22 0.48,-3.8 0.73,-8.53 0.73,-14.19"
         style="fill:#2ea744;fill-opacity:1;fill-rule:nonzero;stroke:none"
         id="path50" />
      <path
         d="m 6778.36,2421.14 c 0,20.86 -1.17,38.32 -3.51,52.35 -2.34,14.04 -5.85,25.25 -10.52,33.64 -4.69,8.37 -10.54,14.33 -17.55,17.83 -7.02,3.51 -15.21,5.27 -24.57,5.27 -9.17,0 -17.06,-1.61 -23.69,-4.83 -6.63,-3.21 -12.13,-7.75 -16.52,-13.6 -4.39,-5.85 -7.65,-12.76 -9.8,-20.76 -2.15,-8 -3.22,-16.77 -3.22,-26.32 0,-10.34 0.93,-19.45 2.78,-27.34 1.85,-7.9 4.78,-14.43 8.78,-19.6 3.99,-5.17 9.21,-9.02 15.64,-11.55 6.44,-2.54 14.23,-3.8 23.4,-3.8 11.3,0 21.98,1.7 32.02,5.12 10.04,3.4 18.96,7.93 26.76,13.59 z m 76.33,-10.52 c 0,-15.41 -0.78,-31.35 -2.34,-47.82 -1.56,-16.48 -4.53,-32.61 -8.92,-48.41 -4.38,-15.78 -10.43,-30.8 -18.13,-45.03 -7.7,-14.23 -17.65,-26.66 -29.83,-37.29 -12.18,-10.63 -27,-19.06 -44.45,-25.3 -17.46,-6.23 -38.07,-9.36 -61.85,-9.36 -8.39,0 -16.73,0.59 -25.01,1.76 -8.29,1.17 -15.84,2.63 -22.67,4.39 -6.82,1.75 -12.62,3.6 -17.4,5.55 -4.78,1.95 -8.24,3.95 -10.38,6 -2.15,2.05 -3.71,5.02 -4.68,8.92 -0.98,3.89 -1.46,9.35 -1.46,16.38 0,6.43 0.14,11.59 0.44,15.5 0.29,3.9 0.88,6.91 1.75,9.06 0.88,2.15 1.95,3.56 3.22,4.24 1.26,0.68 2.78,1.02 4.53,1.02 2.34,0 5.65,-0.68 9.95,-2.04 4.28,-1.37 9.5,-2.92 15.64,-4.68 6.14,-1.76 13.11,-3.32 20.91,-4.68 7.8,-1.37 16.47,-2.04 26.03,-2.04 16.38,0 30.22,2.92 41.53,8.77 11.31,5.85 20.47,13.74 27.49,23.69 7.02,9.94 12.19,21.44 15.5,34.51 3.31,13.06 5.16,26.8 5.56,41.23 -8.97,-5.65 -19.79,-10.57 -32.46,-14.77 -12.68,-4.19 -27.21,-6.28 -43.58,-6.28 -20.09,0 -37.14,2.63 -51.18,7.89 -14.04,5.26 -25.44,12.87 -34.22,22.81 -8.77,9.95 -15.16,22.03 -19.15,36.27 -4,14.23 -6,30.31 -6,48.25 0,18.91 2.82,36.32 8.48,52.21 5.66,15.89 14.04,29.63 25.15,41.24 11.12,11.59 24.96,20.6 41.53,27.05 16.57,6.43 35.78,9.65 57.61,9.65 17.55,0 32.9,-2.05 46.07,-6.14 13.16,-4.1 24.46,-9.96 33.92,-17.55 9.46,-7.6 17.35,-16.82 23.69,-27.64 6.33,-10.82 11.3,-22.86 14.92,-36.12 3.6,-13.26 6.14,-27.59 7.6,-42.99 1.46,-15.4 2.19,-31.49 2.19,-48.25"
         style="fill:#2ea744;fill-opacity:1;fill-rule:nonzero;stroke:none"
         id="path52" />
      <path
         d="m 7155.63,2314.98 c 0,-18.91 -3.61,-35.68 -10.82,-50.3 -7.22,-14.63 -17.26,-26.91 -30.12,-36.85 -12.87,-9.95 -28.27,-17.5 -46.21,-22.66 -17.94,-5.17 -37.54,-7.76 -58.78,-7.76 -12.87,0 -24.96,0.93 -36.27,2.78 -11.31,1.86 -21.3,4.14 -29.98,6.88 -8.67,2.73 -15.84,5.56 -21.49,8.48 -5.66,2.92 -9.36,5.16 -11.12,6.72 -1.75,1.57 -3.07,3.32 -3.94,5.27 -0.88,1.94 -1.66,4.24 -2.34,6.87 -0.69,2.63 -1.17,5.95 -1.46,9.95 -0.3,3.98 -0.44,8.82 -0.44,14.47 0,9.36 0.77,15.84 2.34,19.46 1.55,3.6 3.9,5.4 7.02,5.4 1.94,0 5.3,-1.31 10.08,-3.95 4.78,-2.63 10.87,-5.46 18.28,-8.48 7.41,-3.03 16.09,-5.85 26.03,-8.48 9.95,-2.63 21.25,-3.95 33.93,-3.95 10.71,0 20.18,1.27 28.37,3.8 8.18,2.53 15.15,6.09 20.9,10.68 5.76,4.57 10.04,10.14 12.88,16.67 2.82,6.53 4.23,13.79 4.23,21.79 0,8.77 -1.71,16.66 -5.11,23.69 -3.42,7.01 -8.48,13.01 -15.21,17.98 -6.73,4.97 -15.21,8.82 -25.44,11.55 -10.24,2.73 -22.28,4.1 -36.12,4.1 h -32.76 c -2.53,0 -4.68,0.34 -6.43,1.02 -1.76,0.68 -3.22,2.09 -4.39,4.24 -1.17,2.15 -2,5.11 -2.49,8.92 -0.48,3.8 -0.73,8.73 -0.73,14.77 0,5.65 0.25,10.28 0.73,13.89 0.49,3.61 1.27,6.39 2.34,8.34 1.07,1.94 2.44,3.31 4.1,4.09 1.66,0.78 3.65,1.17 6,1.17 h 33.04 c 11.31,0 21.35,1.32 30.13,3.95 8.77,2.63 16.12,6.38 22.08,11.26 5.94,4.87 10.47,10.77 13.59,17.69 3.12,6.92 4.68,14.57 4.68,22.96 0,6.43 -1.07,12.53 -3.21,18.28 -2.15,5.75 -5.32,10.71 -9.51,14.91 -4.19,4.2 -9.6,7.51 -16.23,9.95 -6.63,2.43 -14.43,3.65 -23.4,3.65 -10.13,0 -19.69,-1.51 -28.65,-4.53 -8.98,-3.02 -17.02,-6.34 -24.14,-9.94 -7.11,-3.62 -13.15,-6.98 -18.13,-10.1 -4.97,-3.11 -8.62,-4.67 -10.96,-4.67 -1.56,0 -2.93,0.33 -4.1,1.02 -1.17,0.68 -2.15,2 -2.92,3.95 -0.78,1.95 -1.37,4.77 -1.76,8.48 -0.39,3.7 -0.58,8.48 -0.58,14.33 0,4.87 0.1,8.92 0.29,12.14 0.19,3.21 0.59,5.89 1.17,8.04 0.58,2.15 1.32,3.99 2.19,5.56 0.88,1.56 2.29,3.25 4.24,5.11 1.95,1.86 5.95,4.63 12,8.34 6.04,3.7 13.64,7.3 22.81,10.82 9.16,3.51 19.74,6.48 31.73,8.92 11.99,2.44 25,3.66 39.04,3.66 18.32,0 34.56,-2.15 48.7,-6.43 14.13,-4.3 26.02,-10.49 35.67,-18.58 9.65,-8.09 16.97,-18.03 21.94,-29.84 4.97,-11.79 7.45,-25.09 7.45,-39.91 0,-11.51 -1.46,-22.22 -4.38,-32.17 -2.93,-9.94 -7.22,-18.82 -12.87,-26.61 -5.66,-7.81 -12.72,-14.43 -21.2,-19.89 -8.48,-5.46 -18.28,-9.56 -29.39,-12.28 v -0.88 c 13.25,-1.56 25.15,-4.92 35.68,-10.09 10.52,-5.17 19.44,-11.65 26.75,-19.45 7.32,-7.8 12.92,-16.62 16.82,-26.47 3.9,-9.84 5.85,-20.42 5.85,-31.73"
         style="fill:#2ea744;fill-opacity:1;fill-rule:nonzero;stroke:none"
         id="path54" />
      <path
         d="m 7381.99,2489.29 c 0,6.82 -0.97,12.96 -2.92,18.42 -1.96,5.46 -5.03,10.09 -9.22,13.89 -4.19,3.8 -9.35,6.68 -15.49,8.63 -6.15,1.95 -13.41,2.93 -21.79,2.93 -16.38,0 -28.57,-3.77 -36.56,-11.27 -8,-7.5 -11.99,-17.88 -11.99,-31.14 0,-6.24 1.02,-11.99 3.07,-17.26 2.05,-5.26 5.21,-10.23 9.51,-14.91 4.28,-4.68 9.84,-9.26 16.67,-13.75 6.82,-4.49 14.91,-9.26 24.27,-14.33 14.23,8.38 25.19,17.35 32.9,26.91 7.7,9.55 11.55,20.18 11.55,31.88 z m 8.78,-188.93 c 0,7.21 -1.22,13.79 -3.66,19.74 -2.44,5.95 -6.24,11.55 -11.41,16.82 -5.16,5.26 -11.65,10.33 -19.45,15.21 -7.79,4.87 -16.86,9.83 -27.19,14.91 -8.97,-4.88 -16.87,-9.75 -23.69,-14.62 -6.83,-4.88 -12.48,-9.99 -16.96,-15.36 -4.49,-5.36 -7.85,-11.01 -10.09,-16.96 -2.25,-5.95 -3.37,-12.33 -3.37,-19.15 0,-15.21 4.92,-26.82 14.77,-34.81 9.85,-8 24.52,-11.99 44.02,-11.99 19.1,0 33.38,4.1 42.84,12.29 9.46,8.19 14.19,19.49 14.19,33.92 z m 76.03,5.27 c 0,-17.17 -2.97,-32.47 -8.91,-45.92 -5.96,-13.45 -14.73,-24.82 -26.33,-34.07 -11.6,-9.26 -25.98,-16.28 -43.13,-21.06 -17.17,-4.77 -36.96,-7.17 -59.37,-7.17 -21.45,0 -40.27,2.15 -56.45,6.44 -16.18,4.29 -29.73,10.58 -40.65,18.86 -10.92,8.29 -19.11,18.52 -24.56,30.71 -5.47,12.18 -8.19,26.17 -8.19,41.96 0,10.73 1.61,20.82 4.82,30.28 3.22,9.45 8,18.22 14.33,26.32 6.34,8.09 14.23,15.69 23.69,22.81 9.45,7.12 20.33,13.89 32.61,20.32 -9.94,5.46 -18.91,11.36 -26.91,17.7 -7.99,6.33 -14.82,13.26 -20.47,20.77 -5.65,7.5 -9.94,15.74 -12.87,24.71 -2.92,8.96 -4.38,18.71 -4.38,29.24 0,15.21 2.68,29 8.04,41.38 5.36,12.38 13.35,23.11 23.98,32.18 10.63,9.06 23.93,16.03 39.92,20.91 15.98,4.87 34.51,7.31 55.57,7.31 20.86,0 38.75,-2.25 53.67,-6.73 14.91,-4.49 27.14,-10.82 36.7,-19.01 9.55,-8.19 16.62,-17.99 21.2,-29.4 4.58,-11.4 6.87,-24.02 6.87,-37.87 0,-9.16 -1.51,-18.09 -4.53,-26.75 -3.03,-8.68 -7.27,-16.92 -12.72,-24.72 -5.46,-7.8 -12.19,-15.16 -20.18,-22.08 -8,-6.92 -17.07,-13.21 -27.2,-18.86 11.89,-6.24 22.52,-12.87 31.88,-19.89 9.36,-7.02 17.25,-14.57 23.69,-22.66 6.43,-8.09 11.35,-16.72 14.76,-25.88 3.41,-9.17 5.12,-19.12 5.12,-29.83"
         style="fill:#2ea744;fill-opacity:1;fill-rule:nonzero;stroke:none"
         id="path56" />
    </g>
  </g>
</svg>
