<?xml version="1.0" encoding="UTF-8" standalone="no"?>
<!-- Created with Inkscape (http://www.inkscape.org/) -->

<svg
   version="1.1"
   id="svg2"
   width="388.04001"
   height="388.04001"
   viewBox="0 0 388.04 388.04001"
   xmlns="http://www.w3.org/2000/svg"
   xmlns:svg="http://www.w3.org/2000/svg">
  <defs
     id="defs6" />
  <g
     id="g8"
     transform="matrix(1.3333333,0,0,-1.3333333,0,388.04)">
    <g
       id="g10"
       transform="matrix(0.1,0,0,0.1,-168.98882,0)">
      <path
         d="m 4120.33,1311.71 -0.03,-0.02 c -16.79,61 -38.61,118.62 -60.66,164.59 -54,112.56 -167.3,405.35 -300.13,447.89 -33.49,258.85 -294.32,4.35 -351.82,45.24 6.7,8.38 13.4,16.76 20.1,25.14 0,142.63 -147.33,210.52 -241.84,298.47 -49.16,45.74 -109,127.11 -162.55,162.78 -23.03,15.34 -42.47,9.37 -59.32,-8 v 0.01 c 0,0 -0.09,-0.11 -0.14,-0.17 -6.76,-7 -13.09,-15.85 -19.08,-25.89 -30.46,-44.37 -90.65,-144.91 -131.97,-297.23 -3.27,-4.18 -6.56,-8.28 -9.89,-12.24 0,0 -599.71,-361.73 -676.52,-824.64 -3.25,-17.76 -5.53,-36.7 -6.7,-57.06 -1.24,-18.02 -1.74,-36.16 -1.25,-54.44 0,-0.04 0.01,-0.08 0.01,-0.13 0,-19.22 0.38,-40.93 1.25,-62.58 0,0 -17.71,-368.309 327.24,-616 28.35,-26.59 54.53,-37.5 76.44,-49.27 1.77,-1.012 3.46,-1.879 5.21,-2.871 27.6,-15.629 47.7,-35 55.64,-94.609 5.94,-44.532 58.02,-204.93 120.64,-111.309 42.01,62.828 89.78,56.5 104.62,-24.051 0.07,-0.011 0.14,-0.031 0.22,-0.031 1.09,-10.328 14.08,-18.527 30.11,-18.527 10.29,0 19.35,3.386 24.83,8.539 0.05,-0.012 0.09,-0.02 0.14,-0.031 48.78,32.972 42.21,101.691 102.2,39.289 67.7,-70.43 161.37,-73.2 144.07,51.183 13.67,5.59 22.04,15.637 25.13,30.156 49.46,18.782 108.97,10.602 160.24,9.391 125.42,-2.969 249.65,33.793 365.92,80.063 0.08,0.027 0.17,0.046 0.26,0.078 735.28,221.789 457.63,896.28 457.63,896.28"
         style="fill:#235550;fill-opacity:1;fill-rule:evenodd;stroke:none"
         id="path12" />
      <path
         d="m 3325.89,2264.33 c -10.41,0 -20.95,2.5 -30.76,7.78 -31.6,17.02 -43.44,56.42 -26.42,88.03 1.76,3.27 43.79,81.09 97.85,158.42 88.71,126.91 157.74,178.9 224.03,168.49 129.09,-20.24 146.9,-236.71 148.57,-328.84 0.64,-35.89 -27.93,-65.52 -63.82,-66.17 -35.76,-0.57 -65.52,27.92 -66.17,63.82 -1.58,81.5 -19.73,171.81 -38.9,198.95 -39.38,-24.19 -124.14,-139.47 -187.09,-256.3 -11.75,-21.8 -34.15,-34.18 -57.29,-34.18 v 0"
         style="fill:#2ea744;fill-opacity:1;fill-rule:nonzero;stroke:none"
         id="path14" />
      <path
         d="m 3867.28,1966.89 c -18.44,0 -36.74,7.8 -49.6,22.95 -23.23,27.37 -19.87,68.39 7.5,91.62 24.02,20.49 48.31,47.14 62.86,67.74 -46.78,-4.48 -130.26,-25.81 -204.33,-53.63 -33.58,-12.63 -71.08,4.38 -83.71,37.97 -12.63,33.6 4.35,71.07 37.94,83.71 2.73,1.02 67.62,25.34 139.16,43.23 124.33,31.07 193.32,24.92 230.73,-20.56 78.16,-95.08 -55.65,-221.19 -98.53,-257.58 -12.22,-10.38 -27.16,-15.45 -42.02,-15.45 v 0"
         style="fill:#2ea744;fill-opacity:1;fill-rule:nonzero;stroke:none"
         id="path16" />
      <path
         d="m 3588.24,668.98 c 0,-5.601 -1.82,-10.621 -5.43,-15.07 -3.64,-4.48 -9.63,-8.101 -18,-10.879 -8.37,-2.812 -19.54,-5.031 -33.49,-6.699 -13.95,-1.684 -31.52,-2.512 -52.73,-2.512 -21.76,0 -39.76,0.828 -53.99,2.512 -14.22,1.668 -25.39,3.887 -33.47,6.699 -8.11,2.778 -13.97,6.399 -17.58,10.879 -3.64,4.449 -5.44,9.469 -5.44,15.07 v 437.76 H 2962.97 V 668.98 c 0,-5.601 -1.67,-10.621 -5.02,-15.07 -3.35,-4.48 -9.2,-8.101 -17.57,-10.879 -8.37,-2.812 -19.55,-5.031 -33.49,-6.699 -13.96,-1.684 -31.81,-2.512 -53.57,-2.512 -21.22,0 -38.92,0.828 -53.15,2.512 -14.24,1.668 -25.54,3.887 -33.9,6.699 -8.37,2.778 -14.37,6.399 -18,10.879 -3.63,4.449 -5.44,9.469 -5.44,15.07 v 1022.86 c 0,5.57 1.81,10.59 5.44,15.07 3.63,4.46 9.63,8.08 18,10.88 8.36,2.78 19.66,5.02 33.9,6.69 14.23,1.68 31.93,2.52 53.15,2.52 21.76,0 39.61,-0.84 53.57,-2.52 13.94,-1.67 25.12,-3.91 33.49,-6.69 8.37,-2.8 14.22,-6.42 17.57,-10.88 3.35,-4.48 5.02,-9.5 5.02,-15.07 v -397.59 h 405.14 v 397.59 c 0,5.57 1.8,10.59 5.44,15.07 3.61,4.46 9.47,8.08 17.58,10.88 8.08,2.78 19.25,5.02 33.47,6.69 14.23,1.68 32.23,2.52 53.99,2.52 21.21,0 38.78,-0.84 52.73,-2.52 13.95,-1.67 25.12,-3.91 33.49,-6.69 8.37,-2.8 14.36,-6.42 18,-10.88 3.61,-4.48 5.43,-9.5 5.43,-15.07 V 668.98"
         style="fill:#ffffff;fill-opacity:1;fill-rule:nonzero;stroke:none"
         id="path22" />
    </g>
  </g>
</svg>
