<?xml version="1.0" encoding="UTF-8" standalone="no"?>
<!-- Created with Inkscape (http://www.inkscape.org/) -->

<svg
   width="210mm"
   height="297mm"
   viewBox="0 0 210 297"
   version="1.1"
   id="svg656"
   inkscape:export-filename="Slogan.svg"
   inkscape:export-xdpi="96"
   inkscape:export-ydpi="96"
   xmlns:inkscape="http://www.inkscape.org/namespaces/inkscape"
   xmlns:sodipodi="http://sodipodi.sourceforge.net/DTD/sodipodi-0.dtd"
   xmlns="http://www.w3.org/2000/svg"
   xmlns:svg="http://www.w3.org/2000/svg">
  <sodipodi:namedview
     id="namedview658"
     pagecolor="#ffffff"
     bordercolor="#000000"
     borderopacity="0.25"
     inkscape:showpageshadow="2"
     inkscape:pageopacity="0.0"
     inkscape:pagecheckerboard="0"
     inkscape:deskcolor="#d1d1d1"
     inkscape:document-units="mm"
     showgrid="false" />
  <defs
     id="defs653" />
  <g
     inkscape:label="Laag 1"
     inkscape:groupmode="layer"
     id="layer1">
    <g
       aria-label="SPOELEN, WARMWATERBEHANDELEN, ONTSMETTEN, DROGEN EN OVERSLAG"
       id="text779"
       style="font-size:14.5434px;font-family:Asap;-inkscape-font-specification:Asap;fill:#6a009a;fill-opacity:0.418079;stroke-width:0.24864;stroke-linecap:round;stroke-linejoin:round;stroke-miterlimit:12.7">
      <path
         d="m 7.4646503,141.9191 c -2.2396836,0 -3.2577216,1.16348 -3.2577216,2.69053 0,1.65795 0.8871474,2.35603 3.3304386,3.02503 1.9051854,0.53811 2.4723777,1.04713 2.4723777,1.99245 0,0.91623 -0.6689961,1.6434 -2.5014645,1.6434 -1.308906,0 -2.617812,-0.37813 -3.344982,-1.00349 -0.1018038,0.11634 -0.2036076,0.30541 -0.2036076,0.58173 0,0.29087 0.218151,0.58174 0.654453,0.85806 0.6108228,0.37813 1.6143174,0.68354 2.9377668,0.68354 2.4287478,0 3.5776763,-1.11984 3.5631333,-2.80687 -0.01454,-1.70158 -1.032582,-2.41421 -3.2140917,-2.99594 -1.963359,-0.5672 -2.5887252,-1.06167 -2.5887252,-1.96336 0,-0.84352 0.6108228,-1.51252 2.1524232,-1.51252 1.5561438,0 2.472378,0.42176 2.9232237,0.79989 0.159977,-0.11635 0.319954,-0.31995 0.319954,-0.53811 0,-0.18906 -0.07272,-0.40721 -0.232694,-0.56719 -0.421759,-0.40721 -1.3089059,-0.88715 -3.0104837,-0.88715 z"
         style="font-family:'St Ryde';-inkscape-font-specification:'St Ryde';fill:#43a346;fill-opacity:1;stroke-width:0.248641"
         id="path2163" />
      <path
         d="m 18.12496,146.07852 c -0.01454,-0.24724 -0.130891,-0.39267 -0.305412,-0.49448 -0.407215,-0.26178 -0.81443,-0.49447 -1.919729,-0.49447 -1.49797,0 -3.126831,0.94532 -3.126831,3.66493 0,2.23969 1.250733,3.63585 3.214092,3.63585 0.916234,0 1.512513,-0.27632 1.788838,-0.4363 0.276325,-0.15998 0.436302,-0.39267 0.436302,-0.669 0,-0.2036 -0.07272,-0.37812 -0.189064,-0.47993 -0.334498,0.24724 -1.076212,0.56719 -1.977903,0.56719 -1.308906,0 -2.210596,-0.95986 -2.210596,-2.60326 0,-1.91973 1.003494,-2.57419 2.094249,-2.57419 0.959865,0 1.265276,0.1309 1.919729,0.45085 0.174521,-0.17452 0.276325,-0.42176 0.276325,-0.56719 z"
         style="font-family:'St Ryde';-inkscape-font-specification:'St Ryde';fill:#43a346;fill-opacity:1;stroke-width:0.248641"
         id="path2165" />
      <path
         d="m 20.335558,142.06454 c -0.261781,0 -0.465388,0.0582 -0.581736,0.13089 v 9.51138 c 0,0.46539 0.276325,0.53811 0.523563,0.53811 0.261781,0 0.465389,-0.0436 0.567192,-0.11635 v -4.55208 c 0.523563,-0.82898 1.396167,-1.36708 2.196054,-1.36708 0.799887,0 1.192559,0.45084 1.192559,1.45434 v 3.50496 c 0,0.78534 0.349041,1.07621 0.90169,1.07621 0.668997,0 1.018038,-0.20361 1.018038,-0.49448 0,-0.15997 -0.02909,-0.24723 -0.07272,-0.31995 h -0.436302 c -0.189064,0 -0.305411,-0.10181 -0.305411,-0.36359 v -3.66493 c 0,-1.55615 -0.712627,-2.3124 -1.963359,-2.3124 -0.988951,0 -1.890642,0.55265 -2.530552,1.39616 v -3.97035 c 0,-0.31995 -0.218151,-0.45084 -0.509019,-0.45084 z"
         style="font-family:'St Ryde';-inkscape-font-specification:'St Ryde';fill:#43a346;fill-opacity:1;stroke-width:0.248641"
         id="path2167" />
      <path
         d="m 27.403657,148.7545 c 0,2.60327 1.308906,3.63585 3.170461,3.63585 1.876099,0 3.199548,-0.98895 3.199548,-3.63585 0,-2.50146 -1.236189,-3.66493 -3.126831,-3.66493 -1.876098,0 -3.243178,1.16347 -3.243178,3.66493 z m 1.148929,0.0145 c 0,-1.78884 0.85806,-2.6469 2.094249,-2.6469 1.221646,0 1.977903,0.84351 1.977903,2.6469 0,1.93427 -0.814431,2.60326 -2.05062,2.60326 -1.192559,0 -2.021532,-0.66899 -2.021532,-2.60326 z"
         style="font-family:'St Ryde';-inkscape-font-specification:'St Ryde';fill:#43a346;fill-opacity:1;stroke-width:0.248641"
         id="path2169" />
      <path
         d="m 35.417079,148.7545 c 0,2.60327 1.308906,3.63585 3.170461,3.63585 1.876099,0 3.199548,-0.98895 3.199548,-3.63585 0,-2.50146 -1.236189,-3.66493 -3.126831,-3.66493 -1.876098,0 -3.243178,1.16347 -3.243178,3.66493 z m 1.148929,0.0145 c 0,-1.78884 0.85806,-2.6469 2.094249,-2.6469 1.221646,0 1.977903,0.84351 1.977903,2.6469 0,1.93427 -0.814431,2.60326 -2.05062,2.60326 -1.192559,0 -2.021532,-0.66899 -2.021532,-2.60326 z"
         style="font-family:'St Ryde';-inkscape-font-specification:'St Ryde';fill:#43a346;fill-opacity:1;stroke-width:0.248641"
         id="path2171" />
      <path
         d="m 44.201301,145.235 c -0.712626,0 -1.032581,0.18906 -1.032581,0.55265 0,0.21815 0.04363,0.3345 0.101804,0.47993 h 0.523562 c 0.218151,0 0.363585,0.10181 0.363585,0.40722 v 5.00293 c 0,0.46539 0.261781,0.56719 0.538106,0.56719 0.290868,0 0.494476,-0.0436 0.625366,-0.13089 v -4.46483 c 0.581736,-0.84351 1.279819,-1.43979 2.210597,-1.43979 0.756257,0 1.236189,0.5381 1.236189,1.5416 v 3.47587 c 0,0.74171 0.319955,1.01804 0.945321,1.01804 0.741713,0 1.076211,-0.20361 1.076211,-0.50902 0,-0.17452 -0.02909,-0.23269 -0.05817,-0.30541 h -0.567193 c -0.189064,0 -0.276324,-0.15998 -0.276324,-0.39267 v -3.54859 c 0,-1.62886 -0.799887,-2.39966 -2.00699,-2.39966 -1.076211,0 -1.890641,0.61082 -2.559638,1.49797 v -0.21815 c 0,-0.75626 -0.436302,-1.13439 -1.119842,-1.13439 z"
         style="font-family:'St Ryde';-inkscape-font-specification:'St Ryde';fill:#43a346;fill-opacity:1;stroke-width:0.248641"
         id="path2173" />
      <path
         d="m 55.676056,145.235 c -0.494476,0 -0.785344,0.20361 -0.785344,0.45085 0,0.18906 0.04363,0.31995 0.08726,0.4363 h 0.421759 c 0.189064,0 0.319955,0.1018 0.392672,0.31995 l 2.18151,5.71556 c 0.101804,0.0582 0.261781,0.0873 0.407215,0.0873 0.349042,0 0.538106,-0.20361 0.799887,-0.58174 1.119842,-1.62886 2.26877,-4.07215 2.26877,-5.33742 0,-0.78535 -0.363585,-1.09076 -1.119841,-1.09076 -0.567193,0 -0.887148,0.17452 -0.887148,0.45085 0,0.2036 0.02909,0.33449 0.07272,0.4363 h 0.421759 c 0.261781,0 0.450845,0.13089 0.450845,0.4363 0,0.94532 -0.85806,2.89414 -1.817925,4.24667 l -1.890642,-4.98838 c -0.13089,-0.3345 -0.363585,-0.58174 -1.003494,-0.58174 z"
         style="font-family:'St Ryde';-inkscape-font-specification:'St Ryde';fill:#43a346;fill-opacity:1;stroke-width:0.248641"
         id="path2175" />
      <path
         d="m 63.049562,148.7545 c 0,2.60327 1.308906,3.63585 3.170461,3.63585 1.876098,0 3.199548,-0.98895 3.199548,-3.63585 0,-2.50146 -1.236189,-3.66493 -3.126831,-3.66493 -1.876099,0 -3.243178,1.16347 -3.243178,3.66493 z m 1.148928,0.0145 c 0,-1.78884 0.858061,-2.6469 2.09425,-2.6469 1.221645,0 1.977902,0.84351 1.977902,2.6469 0,1.93427 -0.81443,2.60326 -2.050619,2.60326 -1.192559,0 -2.021533,-0.66899 -2.021533,-2.60326 z"
         style="font-family:'St Ryde';-inkscape-font-specification:'St Ryde';fill:#43a346;fill-opacity:1;stroke-width:0.248641"
         id="path2177" />
      <path
         d="m 71.062982,148.7545 c 0,2.60327 1.308906,3.63585 3.170461,3.63585 1.876098,0 3.199548,-0.98895 3.199548,-3.63585 0,-2.50146 -1.236189,-3.66493 -3.126831,-3.66493 -1.876099,0 -3.243178,1.16347 -3.243178,3.66493 z m 1.148928,0.0145 c 0,-1.78884 0.858061,-2.6469 2.09425,-2.6469 1.221646,0 1.977902,0.84351 1.977902,2.6469 0,1.93427 -0.81443,2.60326 -2.050619,2.60326 -1.192559,0 -2.021533,-0.66899 -2.021533,-2.60326 z"
         style="font-family:'St Ryde';-inkscape-font-specification:'St Ryde';fill:#43a346;fill-opacity:1;stroke-width:0.248641"
         id="path2179" />
      <path
         d="m 79.701768,145.235 c -0.625366,0 -1.003495,0.24724 -1.003495,0.55265 0,0.18906 0.02909,0.31995 0.08726,0.47993 h 0.538106 c 0.232694,0 0.363585,0.14544 0.363585,0.45085 v 5.00293 c 0,0.45084 0.247237,0.52356 0.523562,0.52356 0.276325,0 0.509019,-0.0436 0.610823,-0.13089 v -4.55209 c 0.509019,-0.75625 1.192559,-1.26527 1.817925,-1.26527 0.479932,0 0.639909,0.26178 0.639909,0.63991 0.08726,0.0873 0.247238,0.17452 0.421759,0.17452 0.378128,0 0.63991,-0.20361 0.63991,-0.79989 0,-0.82897 -0.465389,-1.22164 -1.250733,-1.22164 -0.81443,0 -1.672491,0.65445 -2.26877,1.42525 v -0.0727 c 0,-0.91623 -0.421759,-1.2071 -1.119842,-1.2071 z"
         style="font-family:'St Ryde';-inkscape-font-specification:'St Ryde';fill:#43a346;fill-opacity:1;stroke-width:0.248641"
         id="path2181" />
      <path
         d="m 94.405154,148.85631 c 0.07272,-0.18907 0.101804,-0.46539 0.101804,-0.74172 0,-1.70157 -0.858061,-3.02502 -2.617812,-3.02502 -1.628861,0 -3.170461,1.22164 -3.170461,3.67948 0,2.18151 1.236189,3.6213 3.112287,3.6213 1.265276,0 1.963359,-0.39267 2.356031,-0.68354 0.145434,-0.1018 0.247238,-0.24723 0.247238,-0.50902 0,-0.24723 -0.101804,-0.39267 -0.247238,-0.47993 -0.334498,0.26178 -1.236189,0.65445 -2.26877,0.65445 -1.221646,0 -2.09425,-0.85806 -2.123337,-2.516 z m -2.545095,-2.77779 c 1.148929,0 1.657948,0.81443 1.657948,1.9779 H 89.85307 c 0.218151,-1.33799 1.076212,-1.9779 2.006989,-1.9779 z"
         style="font-family:'St Ryde';-inkscape-font-specification:'St Ryde';fill:#43a346;fill-opacity:1;stroke-width:0.248641"
         id="path2183" />
      <path
         d="m 96.833891,145.235 c -0.55265,0 -1.018038,0.20361 -1.018038,0.56719 0,0.11635 0.02909,0.21815 0.05817,0.31996 h 0.610823 c 0.189064,0 0.305411,0.0727 0.407215,0.21815 l 1.512514,2.37057 -2.559639,2.90868 c 0.02909,0.31996 0.276325,0.62537 0.63991,0.62537 0.276325,0 0.523562,-0.14544 0.72717,-0.40722 l 1.716121,-2.29785 1.367083,2.12333 c 0.24724,0.39267 0.63991,0.58174 1.1053,0.58174 0.63991,0 0.97441,-0.21815 0.97441,-0.52356 0,-0.15998 0,-0.26178 -0.0582,-0.36359 h -0.5381 c -0.2327,0 -0.43631,-0.1018 -0.65446,-0.46539 l -1.45434,-2.26877 2.38512,-2.77779 c 0.0145,-0.29087 -0.17452,-0.61082 -0.69808,-0.61082 -0.26178,0 -0.52356,0.18906 -0.68354,0.45085 l -1.527062,2.12333 -1.221645,-1.93427 c -0.261782,-0.42176 -0.55265,-0.63991 -1.090755,-0.63991 z"
         style="font-family:'St Ryde';-inkscape-font-specification:'St Ryde';fill:#43a346;fill-opacity:1;stroke-width:0.248641"
         id="path2185" />
      <path
         d="m 104.39645,145.235 c -0.71263,0 -1.03258,0.18906 -1.03258,0.55265 0,0.21815 0.0436,0.3345 0.1018,0.47993 h 0.52357 c 0.2036,0 0.34904,0.10181 0.34904,0.40722 v 7.83889 c 0,0.46539 0.26178,0.56719 0.5381,0.56719 0.29087,0 0.43631,-0.0291 0.58174,-0.11635 v -3.43224 c 0.45084,0.46539 1.1053,0.85806 2.00699,0.85806 1.46888,0 2.82142,-1.2071 2.82142,-3.76674 -0.0145,-2.77779 -1.26528,-3.53404 -2.58873,-3.53404 -0.85806,0 -1.65794,0.49447 -2.23968,1.2071 -0.0291,-0.68354 -0.39267,-1.06167 -1.06167,-1.06167 z m 2.99594,1.00349 c 0.88715,0 1.80338,0.40722 1.80338,2.50147 0,1.78884 -0.84351,2.60327 -1.93427,2.60327 -0.85806,0 -1.48343,-0.58174 -1.80338,-0.98895 v -3.03957 c 0.5381,-0.68354 1.16347,-1.07622 1.93427,-1.07622 z"
         style="font-family:'St Ryde';-inkscape-font-specification:'St Ryde';fill:#43a346;fill-opacity:1;stroke-width:0.248641"
         id="path2187" />
      <path
         d="m 111.91539,148.7545 c 0,2.60327 1.30891,3.63585 3.17046,3.63585 1.8761,0 3.19955,-0.98895 3.19955,-3.63585 0,-2.50146 -1.23619,-3.66493 -3.12683,-3.66493 -1.8761,0 -3.24318,1.16347 -3.24318,3.66493 z m 1.14893,0.0145 c 0,-1.78884 0.85806,-2.6469 2.09425,-2.6469 1.22164,0 1.9779,0.84351 1.9779,2.6469 0,1.93427 -0.81443,2.60326 -2.05062,2.60326 -1.19256,0 -2.02153,-0.66899 -2.02153,-2.60326 z"
         style="font-family:'St Ryde';-inkscape-font-specification:'St Ryde';fill:#43a346;fill-opacity:1;stroke-width:0.248641"
         id="path2189" />
      <path
         d="m 120.55419,145.235 c -0.62537,0 -1.0035,0.24724 -1.0035,0.55265 0,0.18906 0.0291,0.31995 0.0873,0.47993 h 0.53811 c 0.23269,0 0.36358,0.14544 0.36358,0.45085 v 5.00293 c 0,0.45084 0.24724,0.52356 0.52356,0.52356 0.27633,0 0.50902,-0.0436 0.61083,-0.13089 v -4.55209 c 0.50902,-0.75625 1.19256,-1.26527 1.81792,-1.26527 0.47993,0 0.63991,0.26178 0.63991,0.63991 0.0873,0.0873 0.24724,0.17452 0.42176,0.17452 0.37813,0 0.63991,-0.20361 0.63991,-0.79989 0,-0.82897 -0.46539,-1.22164 -1.25073,-1.22164 -0.81443,0 -1.67249,0.65445 -2.26877,1.42525 v -0.0727 c 0,-0.91623 -0.42176,-1.2071 -1.11984,-1.2071 z"
         style="font-family:'St Ryde';-inkscape-font-specification:'St Ryde';fill:#43a346;fill-opacity:1;stroke-width:0.248641"
         id="path2191" />
      <path
         d="m 129.6729,146.18032 c 0.47994,0 0.55265,-0.3345 0.55265,-0.56719 0,-0.18907 -0.0291,-0.30541 -0.1018,-0.37813 h -2.22514 v -1.5416 c 0,-0.3345 -0.20361,-0.47993 -0.49448,-0.47993 -0.23269,0 -0.46539,0.0582 -0.56719,0.11634 v 1.90519 h -0.49447 c -0.37813,0 -0.47994,0.20361 -0.47994,0.53811 0,0.17452 0.0436,0.30541 0.11635,0.40721 h 0.85806 v 4.26122 c 0,1.41071 0.69808,1.80338 1.65795,1.80338 1.42525,0 1.75975,-0.27633 1.75975,-0.65445 0,-0.14544 -0.0291,-0.21816 -0.0727,-0.31996 h -1.39616 c -0.58174,0 -0.88715,-0.21815 -0.88715,-1.09075 v -3.99944 z"
         style="font-family:'St Ryde';-inkscape-font-specification:'St Ryde';fill:#43a346;fill-opacity:1;stroke-width:0.248641"
         id="path2193" />
      <path
         d="m 140.595,148.85631 c 0.0727,-0.18907 0.10181,-0.46539 0.10181,-0.74172 0,-1.70157 -0.85806,-3.02502 -2.61781,-3.02502 -1.62887,0 -3.17047,1.22164 -3.17047,3.67948 0,2.18151 1.23619,3.6213 3.11229,3.6213 1.26528,0 1.96336,-0.39267 2.35603,-0.68354 0.14544,-0.1018 0.24724,-0.24723 0.24724,-0.50902 0,-0.24723 -0.1018,-0.39267 -0.24724,-0.47993 -0.3345,0.26178 -1.23619,0.65445 -2.26877,0.65445 -1.22164,0 -2.09425,-0.85806 -2.12333,-2.516 z m -2.54509,-2.77779 c 1.14893,0 1.65795,0.81443 1.65795,1.9779 h -3.66494 c 0.21815,-1.33799 1.07621,-1.9779 2.00699,-1.9779 z"
         style="font-family:'St Ryde';-inkscape-font-specification:'St Ryde';fill:#43a346;fill-opacity:1;stroke-width:0.248641"
         id="path2195" />
      <path
         d="m 143.0092,145.235 c -0.71262,0 -1.03258,0.18906 -1.03258,0.55265 0,0.21815 0.0436,0.3345 0.10181,0.47993 h 0.52356 c 0.21815,0 0.36358,0.10181 0.36358,0.40722 v 5.00293 c 0,0.46539 0.26179,0.56719 0.53811,0.56719 0.29087,0 0.49448,-0.0436 0.62537,-0.13089 v -4.46483 c 0.58173,-0.84351 1.27982,-1.43979 2.21059,-1.43979 0.75626,0 1.23619,0.5381 1.23619,1.5416 v 3.47587 c 0,0.74171 0.31996,1.01804 0.94532,1.01804 0.74172,0 1.07621,-0.20361 1.07621,-0.50902 0,-0.17452 -0.0291,-0.23269 -0.0582,-0.30541 H 148.972 c -0.18907,0 -0.27633,-0.15998 -0.27633,-0.39267 v -3.54859 c 0,-1.62886 -0.79988,-2.39966 -2.00699,-2.39966 -1.07621,0 -1.89064,0.61082 -2.55963,1.49797 v -0.21815 c 0,-0.75626 -0.43631,-1.13439 -1.11985,-1.13439 z"
         style="font-family:'St Ryde';-inkscape-font-specification:'St Ryde';fill:#43a346;fill-opacity:1;stroke-width:0.248641"
         id="path2197" />
      <path
         d="m 155.00751,142.06454 c -0.26178,0 -0.40721,0.0582 -0.52356,0.14543 v 9.49684 c 0,0.46539 0.26178,0.53811 0.50902,0.53811 0.27632,0 0.49448,-0.0582 0.61082,-0.14544 v -3.17046 c 1.17802,0.75626 1.93428,3.3159 3.50496,3.3159 0.55265,0 0.82898,-0.29087 0.82898,-0.65445 0,-0.17452 -0.0436,-0.3345 -0.0873,-0.40722 h -0.50902 c -1.1053,0 -1.80338,-2.09425 -2.77779,-2.66144 1.14893,-0.45085 2.34148,-1.86156 2.34148,-2.82142 0,-0.3345 -0.21815,-0.46539 -0.5381,-0.46539 -0.17452,0 -0.36359,0.0436 -0.47993,0.11635 -0.0582,0.95986 -0.91624,2.21059 -2.28332,2.86505 v -5.70102 c 0,-0.33449 -0.31995,-0.45084 -0.59628,-0.45084 z"
         style="font-family:'St Ryde';-inkscape-font-specification:'St Ryde';fill:#43a346;fill-opacity:1;stroke-width:0.248641"
         id="path2199" />
      <path
         d="m 167.58756,152.14312 c 0.1018,0.0727 0.20361,0.1018 0.39267,0.1018 0.36358,0 0.56719,-0.29087 0.84352,-0.69808 0.95986,-1.42526 1.94881,-3.86855 1.94881,-5.22108 0,-0.71263 -0.29087,-1.09076 -1.01804,-1.09076 -0.58173,0 -0.9744,0.20361 -0.9744,0.49448 0,0.17452 0.0291,0.29086 0.0727,0.39267 h 0.49448 c 0.20361,0 0.34904,0.14543 0.34904,0.39267 0,1.00349 -0.669,2.89414 -1.62886,4.1885 l -1.65795,-4.93021 c -0.1018,-0.30542 -0.34904,-0.53811 -0.74171,-0.53811 -0.61082,0 -1.01804,0.20361 -1.01804,0.50902 0,0.15998 0.0291,0.27632 0.0727,0.37813 h 0.42176 c 0.17452,0 0.26178,0.14543 0.26178,0.3345 0,0.85806 -0.79989,2.89413 -1.67249,4.21758 l -1.5416,-4.84295 c -0.14544,-0.39267 -0.37813,-0.59628 -0.91624,-0.59628 -0.68354,0 -0.97441,0.18906 -0.97441,0.49448 0,0.15997 0.0291,0.27632 0.0727,0.39267 h 0.52356 c 0.17452,0 0.27633,0.0873 0.31996,0.26178 l 1.8761,5.74464 c 0.0873,0.0727 0.21815,0.11635 0.42176,0.11635 0.31995,0 0.50902,-0.17452 0.81443,-0.669 0.65445,-1.07621 1.32345,-2.61781 1.67249,-3.99943 z"
         style="font-family:'St Ryde';-inkscape-font-specification:'St Ryde';fill:#43a346;fill-opacity:1;stroke-width:0.248641"
         id="path2201" />
      <path
         d="m 177.94246,148.85631 c 0.0727,-0.18907 0.10181,-0.46539 0.10181,-0.74172 0,-1.70157 -0.85806,-3.02502 -2.61782,-3.02502 -1.62886,0 -3.17046,1.22164 -3.17046,3.67948 0,2.18151 1.23619,3.6213 3.11229,3.6213 1.26528,0 1.96336,-0.39267 2.35603,-0.68354 0.14543,-0.1018 0.24724,-0.24723 0.24724,-0.50902 0,-0.24723 -0.10181,-0.39267 -0.24724,-0.47993 -0.3345,0.26178 -1.23619,0.65445 -2.26877,0.65445 -1.22165,0 -2.09425,-0.85806 -2.12334,-2.516 z m -2.54509,-2.77779 c 1.14893,0 1.65794,0.81443 1.65794,1.9779 h -3.66493 c 0.21815,-1.33799 1.07621,-1.9779 2.00699,-1.9779 z"
         style="font-family:'St Ryde';-inkscape-font-specification:'St Ryde';fill:#43a346;fill-opacity:1;stroke-width:0.248641"
         id="path2203" />
      <path
         d="m 180.25486,142.06454 c -0.26178,0 -0.40722,0.0582 -0.52356,0.14543 v 9.49684 c 0,0.46539 0.26178,0.53811 0.50902,0.53811 0.27632,0 0.49447,-0.0582 0.61082,-0.14544 v -3.17046 c 1.17801,0.75626 1.93427,3.3159 3.50496,3.3159 0.55265,0 0.82897,-0.29087 0.82897,-0.65445 0,-0.17452 -0.0436,-0.3345 -0.0873,-0.40722 h -0.50902 c -1.1053,0 -1.80338,-2.09425 -2.77779,-2.66144 1.14893,-0.45085 2.34149,-1.86156 2.34149,-2.82142 0,-0.3345 -0.21815,-0.46539 -0.53811,-0.46539 -0.17452,0 -0.36358,0.0436 -0.47993,0.11635 -0.0582,0.95986 -0.91623,2.21059 -2.28331,2.86505 v -5.70102 c 0,-0.33449 -0.31996,-0.45084 -0.59628,-0.45084 z"
         style="font-family:'St Ryde';-inkscape-font-specification:'St Ryde';fill:#43a346;fill-opacity:1;stroke-width:0.248641"
         id="path2205" />
      <path
         d="m 191.83141,148.85631 c 0.0727,-0.18907 0.1018,-0.46539 0.1018,-0.74172 0,-1.70157 -0.85806,-3.02502 -2.61781,-3.02502 -1.62886,0 -3.17046,1.22164 -3.17046,3.67948 0,2.18151 1.23619,3.6213 3.11229,3.6213 1.26527,0 1.96336,-0.39267 2.35603,-0.68354 0.14543,-0.1018 0.24724,-0.24723 0.24724,-0.50902 0,-0.24723 -0.10181,-0.39267 -0.24724,-0.47993 -0.3345,0.26178 -1.23619,0.65445 -2.26877,0.65445 -1.22165,0 -2.09425,-0.85806 -2.12334,-2.516 z m -2.5451,-2.77779 c 1.14893,0 1.65795,0.81443 1.65795,1.9779 h -3.66494 c 0.21816,-1.33799 1.07622,-1.9779 2.00699,-1.9779 z"
         style="font-family:'St Ryde';-inkscape-font-specification:'St Ryde';fill:#43a346;fill-opacity:1;stroke-width:0.248641"
         id="path2207" />
      <path
         d="m 194.10018,145.235 c -0.62537,0 -1.0035,0.24724 -1.0035,0.55265 0,0.18906 0.0291,0.31995 0.0873,0.47993 h 0.53811 c 0.23269,0 0.36358,0.14544 0.36358,0.45085 v 5.00293 c 0,0.45084 0.24724,0.52356 0.52356,0.52356 0.27633,0 0.50902,-0.0436 0.61083,-0.13089 v -4.55209 c 0.50902,-0.75625 1.19256,-1.26527 1.81792,-1.26527 0.47993,0 0.63991,0.26178 0.63991,0.63991 0.0873,0.0873 0.24724,0.17452 0.42176,0.17452 0.37813,0 0.63991,-0.20361 0.63991,-0.79989 0,-0.82897 -0.46539,-1.22164 -1.25073,-1.22164 -0.81443,0 -1.67249,0.65445 -2.26877,1.42525 v -0.0727 c 0,-0.91623 -0.42176,-1.2071 -1.11984,-1.2071 z"
         style="font-family:'St Ryde';-inkscape-font-specification:'St Ryde';fill:#43a346;fill-opacity:1;stroke-width:0.248641"
         id="path2209" />
      <path
         d="m 200.57199,145.235 c -0.53811,0 -0.93078,0.17452 -0.93078,0.59628 0,0.18906 0.0291,0.3345 0.0873,0.4363 h 0.42176 c 0.21815,0 0.36358,0.0873 0.36358,0.40722 v 4.58117 c 0,0.72717 0.36359,0.98895 0.95987,0.98895 0.69808,0 0.97441,-0.20361 0.97441,-0.53811 0,-0.17452 -0.0291,-0.27632 -0.0873,-0.36358 h -0.42176 c -0.20361,0 -0.3345,-0.10181 -0.3345,-0.37813 v -4.59571 c 0,-0.91624 -0.39267,-1.13439 -1.03258,-1.13439 z m -0.36359,-1.99245 c 0,0.46539 0.24724,0.69809 0.71263,0.69809 0.46539,0 0.71263,-0.21815 0.71263,-0.69809 0,-0.47993 -0.24724,-0.72717 -0.71263,-0.72717 -0.47993,0 -0.71263,0.24724 -0.71263,0.72717 z"
         style="font-family:'St Ryde';-inkscape-font-specification:'St Ryde';fill:#43a346;fill-opacity:1;stroke-width:0.248641"
         id="path2211" />
      <path
         d="m 204.93501,145.235 c -0.69808,0 -0.98895,0.21815 -0.98895,0.58174 0,0.21815 0.0291,0.33449 0.0727,0.45084 h 0.56719 c 0.20361,0 0.3345,0.10181 0.3345,0.40722 v 6.00642 c 0,0.69808 -0.34904,1.0035 -0.90169,1.0035 h -1.06167 c -0.0582,0.15997 -0.0727,0.29086 -0.0727,0.4363 0,0.4363 0.56719,0.61082 1.38162,0.61082 0.97441,0 1.70158,-0.47993 1.70158,-1.83247 v -6.54453 c 0,-0.82897 -0.30541,-1.11984 -1.03258,-1.11984 z m -0.31995,-1.99245 c 0,0.46539 0.24723,0.69809 0.71262,0.69809 0.46539,0 0.71263,-0.21815 0.71263,-0.69809 0,-0.47993 -0.24724,-0.72717 -0.71263,-0.72717 -0.47993,0 -0.71262,0.24724 -0.71262,0.72717 z"
         style="font-family:'St Ryde';-inkscape-font-specification:'St Ryde';fill:#43a346;fill-opacity:1;stroke-width:0.248641"
         id="path2213" />
    </g>
  </g>
</svg>
